<svg id="color" enable-background="new 0 0 24 24" height="512" viewBox="0 0 24 24" width="512" xmlns="http://www.w3.org/2000/svg"><path d="m2.25 24h-.5c-.965 0-1.75-.785-1.75-1.75v-5.5c0-.965.785-1.75 1.75-1.75h.5c.965 0 1.75.785 1.75 1.75v5.5c0 .965-.785 1.75-1.75 1.75z" fill="#cfd8dc"/><path d="m8.25 24h-.5c-.965 0-1.75-.785-1.75-1.75v-9.5c0-.965.785-1.75 1.75-1.75h.5c.965 0 1.75.785 1.75 1.75v9.5c0 .965-.785 1.75-1.75 1.75z" fill="#b0bec5"/><path d="m14.25 5h-.5c-.96 0-1.75.79-1.75 1.75v4.96c1.09-1.04 2.47-1.77 4-2.07v-2.89c0-.96-.79-1.75-1.75-1.75z" fill="#90a4ae"/><path d="m20.25 0h-.5c-.96 0-1.75.79-1.75 1.75v7.77c1.48.09 2.85.59 4 1.38v-9.15c0-.96-.79-1.75-1.75-1.75z" fill="#78909c"/><circle cx="17.5" cy="17.5" fill="#fff" r="5.5"/><path d="m11.999 16.5h11.002v2h-11.002z" fill="#f44336" transform="matrix(.707 -.707 .707 .707 -7.249 17.5)"/><path d="m17.5 24c-3.584 0-6.5-2.916-6.5-6.5s2.916-6.5 6.5-6.5 6.5 2.916 6.5 6.5-2.916 6.5-6.5 6.5zm0-11c-2.481 0-4.5 2.019-4.5 4.5s2.019 4.5 4.5 4.5 4.5-2.019 4.5-4.5-2.019-4.5-4.5-4.5z" fill="#f44336"/><path d="m2 15h-.25c-.965 0-1.75.785-1.75 1.75v5.5c0 .965.785 1.75 1.75 1.75h.25z" opacity=".13"/><path d="m8 11h-.25c-.965 0-1.75.785-1.75 1.75v9.5c0 .965.785 1.75 1.75 1.75h.25z" opacity=".13"/><path d="m20 0h-.25c-.96 0-1.75.79-1.75 1.75v7.77c.695.042 1.365.175 2 .385z" fill="#687d88"/><path d="m14 5h-.25c-.96 0-1.75.79-1.75 1.75v4.96c.589-.562 1.263-1.034 2-1.396z" fill="#7d8f97"/><path d="m17.5 11c-3.584 0-6.5 2.916-6.5 6.5s2.916 6.5 6.5 6.5z" opacity=".13"/></svg>